<svg width="1280" height="720" viewBox="0 0 1280 720" fill="none" xmlns="http://www.w3.org/2000/svg">
<g clip-path="url(#clip0_1_57)">
<mask id="mask0_1_57" style="mask-type:luminance" maskUnits="userSpaceOnUse" x="0" y="0" width="1280" height="720">
<path d="M1260 0H20C8.9543 0 0 8.9543 0 20V700C0 711.046 8.9543 720 20 720H1260C1271.05 720 1280 711.046 1280 700V20C1280 8.9543 1271.05 0 1260 0Z" fill="white"/>
</mask>
<g mask="url(#mask0_1_57)">
<path d="M1260 0H20C8.9543 0 0 8.9543 0 20V700C0 711.046 8.9543 720 20 720H1260C1271.05 720 1280 711.046 1280 700V20C1280 8.9543 1271.05 0 1260 0Z" fill="#28272C"/>
<path d="M0 173H119.559C130.296 173 139 181.954 139 193V720H0V173Z" fill="#7B4DFA"/>
<path d="M0 160H125C134.941 160 143 151.941 143 142V136C143 126.059 134.941 118 125 118H0V160Z" fill="url(#paint0_linear_1_57)"/>
<path d="M40.623 134.598L37.6055 143H36.0469L33.082 134.598H34.6055L36.6797 140.973C36.7461 141.176 36.7969 141.412 36.832 141.682H36.8555C36.8828 141.459 36.9395 141.219 37.0254 140.961L39.1465 134.598H40.623ZM42.2695 135.74C42.0469 135.74 41.8555 135.668 41.6953 135.523C41.5391 135.379 41.4609 135.195 41.4609 134.973C41.4609 134.75 41.5391 134.564 41.6953 134.416C41.8555 134.268 42.0469 134.193 42.2695 134.193C42.5 134.193 42.6953 134.268 42.8555 134.416C43.0156 134.564 43.0957 134.75 43.0957 134.973C43.0957 135.184 43.0156 135.365 42.8555 135.518C42.6953 135.666 42.5 135.74 42.2695 135.74ZM42.9434 143H41.584V137H42.9434V143ZM44.3496 142.812V141.553C44.8574 141.939 45.418 142.133 46.0312 142.133C46.8516 142.133 47.2617 141.891 47.2617 141.406C47.2617 141.27 47.2266 141.154 47.1562 141.061C47.0859 140.963 46.9902 140.877 46.8691 140.803C46.752 140.729 46.6113 140.662 46.4473 140.604C46.2871 140.545 46.1074 140.479 45.9082 140.404C45.6621 140.307 45.4395 140.203 45.2402 140.094C45.0449 139.984 44.8809 139.861 44.748 139.725C44.6191 139.584 44.5215 139.426 44.4551 139.25C44.3887 139.074 44.3555 138.869 44.3555 138.635C44.3555 138.346 44.4238 138.092 44.5605 137.873C44.6973 137.65 44.8809 137.465 45.1113 137.316C45.3418 137.164 45.6035 137.051 45.8965 136.977C46.1895 136.898 46.4922 136.859 46.8047 136.859C47.3594 136.859 47.8555 136.943 48.293 137.111V138.301C47.8711 138.012 47.3867 137.867 46.8398 137.867C46.668 137.867 46.5117 137.885 46.3711 137.92C46.2344 137.955 46.1172 138.004 46.0195 138.066C45.9219 138.129 45.8457 138.205 45.791 138.295C45.7363 138.381 45.709 138.477 45.709 138.582C45.709 138.711 45.7363 138.82 45.791 138.91C45.8457 139 45.9258 139.08 46.0312 139.15C46.1406 139.217 46.2695 139.279 46.418 139.338C46.5703 139.393 46.7441 139.453 46.9395 139.52C47.1973 139.625 47.4277 139.732 47.6309 139.842C47.8379 139.951 48.0137 140.076 48.1582 140.217C48.3027 140.354 48.4141 140.514 48.4922 140.697C48.5703 140.877 48.6094 141.092 48.6094 141.342C48.6094 141.646 48.5391 141.912 48.3984 142.139C48.2578 142.365 48.0703 142.553 47.8359 142.701C47.6016 142.85 47.3301 142.959 47.0215 143.029C46.7168 143.104 46.3945 143.141 46.0547 143.141C45.3984 143.141 44.8301 143.031 44.3496 142.812ZM54.5098 143H53.1914V142.062H53.168C52.7539 142.781 52.1465 143.141 51.3457 143.141C50.7559 143.141 50.293 142.98 49.957 142.66C49.625 142.34 49.459 141.916 49.459 141.389C49.459 140.256 50.1113 139.596 51.416 139.408L53.1973 139.156C53.1973 138.301 52.791 137.873 51.9785 137.873C51.2637 137.873 50.6191 138.119 50.0449 138.611V137.422C50.6777 137.047 51.4082 136.859 52.2363 136.859C53.752 136.859 54.5098 137.605 54.5098 139.098V143ZM53.1973 140.053L51.9375 140.229C51.5469 140.279 51.252 140.375 51.0527 140.516C50.8574 140.652 50.7598 140.895 50.7598 141.242C50.7598 141.496 50.8496 141.705 51.0293 141.869C51.2129 142.029 51.457 142.109 51.7617 142.109C52.1758 142.109 52.5176 141.965 52.7871 141.676C53.0605 141.383 53.1973 141.016 53.1973 140.574V140.053ZM54.1289 134.357C54.1289 134.811 54.0273 135.182 53.8242 135.471C53.625 135.756 53.3535 135.898 53.0098 135.898C52.7285 135.898 52.4062 135.805 52.043 135.617C51.7383 135.441 51.502 135.354 51.334 135.354C51.0059 135.354 50.8418 135.57 50.8418 136.004H50.168C50.168 135.539 50.2676 135.168 50.4668 134.891C50.666 134.609 50.9453 134.469 51.3047 134.469C51.5703 134.469 51.877 134.568 52.2246 134.768C52.5059 134.939 52.75 135.025 52.957 135.025C53.2734 135.025 53.4316 134.803 53.4316 134.357H54.1289ZM58.834 143.141C57.9082 143.141 57.168 142.861 56.6133 142.303C56.0625 141.74 55.7871 140.996 55.7871 140.07C55.7871 139.062 56.0742 138.275 56.6484 137.709C57.2266 137.143 58.0039 136.859 58.9805 136.859C59.918 136.859 60.6484 137.135 61.1719 137.686C61.6953 138.236 61.957 139 61.957 139.977C61.957 140.934 61.6738 141.701 61.1074 142.279C60.5449 142.854 59.7871 143.141 58.834 143.141ZM58.8984 137.943C58.3672 137.943 57.9473 138.129 57.6387 138.5C57.3301 138.871 57.1758 139.383 57.1758 140.035C57.1758 140.664 57.332 141.16 57.6445 141.523C57.957 141.883 58.375 142.062 58.8984 142.062C59.4336 142.062 59.8438 141.885 60.1289 141.529C60.418 141.174 60.5625 140.668 60.5625 140.012C60.5625 139.352 60.418 138.842 60.1289 138.482C59.8438 138.123 59.4336 137.943 58.8984 137.943ZM72.1113 142.52C72.1113 144.723 71.0039 145.824 68.7891 145.824C68.0078 145.824 67.3262 145.693 66.7441 145.432V144.189C67.4004 144.564 68.0234 144.752 68.6133 144.752C70.0391 144.752 70.752 144.051 70.752 142.648V141.992H70.7285C70.2793 142.758 69.6035 143.141 68.7012 143.141C67.9707 143.141 67.3809 142.875 66.9316 142.344C66.4863 141.809 66.2637 141.092 66.2637 140.193C66.2637 139.174 66.5039 138.363 66.9844 137.762C67.4648 137.16 68.125 136.859 68.9648 136.859C69.7578 136.859 70.3457 137.184 70.7285 137.832H70.752V137H72.1113V142.52ZM70.7637 140.252V139.473C70.7637 139.051 70.623 138.691 70.3418 138.395C70.0645 138.094 69.7168 137.943 69.2988 137.943C68.7832 137.943 68.3789 138.135 68.0859 138.518C67.7969 138.896 67.6523 139.428 67.6523 140.111C67.6523 140.701 67.791 141.174 68.0684 141.529C68.3496 141.881 68.7207 142.057 69.1816 142.057C69.6504 142.057 70.0312 141.889 70.3242 141.553C70.6172 141.213 70.7637 140.779 70.7637 140.252ZM78.9609 140.369H74.8711C74.8867 140.924 75.0566 141.352 75.3809 141.652C75.709 141.953 76.1582 142.104 76.7285 142.104C77.3691 142.104 77.957 141.912 78.4922 141.529V142.625C77.9453 142.969 77.2227 143.141 76.3242 143.141C75.4414 143.141 74.748 142.869 74.2441 142.326C73.7441 141.779 73.4941 141.012 73.4941 140.023C73.4941 139.09 73.7695 138.33 74.3203 137.744C74.875 137.154 75.5625 136.859 76.3828 136.859C77.2031 136.859 77.8379 137.123 78.2871 137.65C78.7363 138.178 78.9609 138.91 78.9609 139.848V140.369ZM77.6484 139.408C77.6445 138.92 77.5293 138.541 77.3027 138.271C77.0762 137.998 76.7637 137.861 76.3652 137.861C75.9746 137.861 75.6426 138.004 75.3691 138.289C75.0996 138.574 74.9336 138.947 74.8711 139.408H77.6484ZM83.7363 138.295C83.5723 138.166 83.3359 138.102 83.0273 138.102C82.625 138.102 82.2891 138.283 82.0195 138.646C81.75 139.01 81.6152 139.504 81.6152 140.129V143H80.2559V137H81.6152V138.236H81.6387C81.7715 137.814 81.9746 137.486 82.248 137.252C82.5254 137.014 82.834 136.895 83.1738 136.895C83.4199 136.895 83.6074 136.932 83.7363 137.006V138.295ZM89.3027 143H87.9844V142.062H87.9609C87.5469 142.781 86.9395 143.141 86.1387 143.141C85.5488 143.141 85.0859 142.98 84.75 142.66C84.418 142.34 84.252 141.916 84.252 141.389C84.252 140.256 84.9043 139.596 86.209 139.408L87.9902 139.156C87.9902 138.301 87.584 137.873 86.7715 137.873C86.0566 137.873 85.4121 138.119 84.8379 138.611V137.422C85.4707 137.047 86.2012 136.859 87.0293 136.859C88.5449 136.859 89.3027 137.605 89.3027 139.098V143ZM87.9902 140.053L86.7305 140.229C86.3398 140.279 86.0449 140.375 85.8457 140.516C85.6504 140.652 85.5527 140.895 85.5527 141.242C85.5527 141.496 85.6426 141.705 85.8223 141.869C86.0059 142.029 86.25 142.109 86.5547 142.109C86.9688 142.109 87.3105 141.965 87.5801 141.676C87.8535 141.383 87.9902 141.016 87.9902 140.574V140.053ZM92.332 143H90.9668V134.117H92.332V143ZM98.9531 139.953V143H97.5645V134.598H100.113C101.078 134.598 101.826 134.822 102.357 135.271C102.889 135.721 103.154 136.354 103.154 137.17C103.154 137.986 102.877 138.654 102.322 139.174C101.768 139.693 101.018 139.953 100.072 139.953H98.9531ZM98.9531 135.746V138.816H99.8555C100.453 138.816 100.908 138.678 101.221 138.4C101.533 138.123 101.689 137.732 101.689 137.229C101.689 136.24 101.115 135.746 99.9668 135.746H98.9531ZM110.443 142.648C109.811 142.977 109.023 143.141 108.082 143.141C106.863 143.141 105.887 142.756 105.152 141.986C104.418 141.217 104.051 140.207 104.051 138.957C104.051 137.613 104.463 136.527 105.287 135.699C106.115 134.871 107.16 134.457 108.422 134.457C109.234 134.457 109.908 134.572 110.443 134.803V136.186C109.877 135.85 109.252 135.682 108.568 135.682C107.658 135.682 106.92 135.973 106.354 136.555C105.791 137.137 105.51 137.914 105.51 138.887C105.51 139.812 105.773 140.551 106.301 141.102C106.828 141.648 107.521 141.922 108.381 141.922C109.174 141.922 109.861 141.734 110.443 141.359V142.648ZM121.061 143H119.678V137.562C119.678 137.117 119.705 136.572 119.76 135.928H119.736C119.65 136.295 119.574 136.559 119.508 136.719L117 143H116.039L113.525 136.766C113.455 136.582 113.381 136.303 113.303 135.928H113.279C113.311 136.264 113.326 136.812 113.326 137.574V143H112.037V134.598H114L116.209 140.193C116.377 140.623 116.486 140.943 116.537 141.154H116.566C116.711 140.713 116.828 140.385 116.918 140.17L119.168 134.598H121.061V143Z" fill="white"/>
<path d="M0 106H116.979C127.484 106 136 97.0457 136 86V-31H0V106Z" fill="#8434EF"/>
<mask id="mask1_1_57" style="mask-type:alpha" maskUnits="userSpaceOnUse" x="0" y="172" width="137" height="548">
<path d="M0 172H117.839C128.422 172 137 180.954 137 192V720H0V172Z" fill="#7B4DFA"/>
</mask>
<g mask="url(#mask1_1_57)">
<path d="M31.3951 741.196C94.561 752.746 151.013 726.994 157.484 683.676C163.954 640.359 117.994 595.88 54.828 584.33C-8.33796 572.78 -64.7897 598.532 -71.2605 641.85C-77.7313 685.167 -31.7708 729.646 31.3951 741.196Z" fill="#7E57FC" fill-opacity="0.7"/>
<path d="M137 306.615C137 405.547 80.8103 485.748 11.4966 485.748C-57.8171 485.748 -114.007 405.547 -114.007 306.615C-114.007 207.682 -43.9254 160.87 25.3882 160.87C94.7019 160.87 137 207.682 137 306.615Z" fill="#824EF8" fill-opacity="0.7"/>
<path d="M211.727 261.037C211.727 337.139 151.892 398.832 78.0804 398.832C4.26925 398.832 -54.6085 386.112 -55.5665 261.037C-56.5246 135.961 4.31113 167.23 70.4161 167.23C136.521 167.23 211.727 184.935 211.727 261.037Z" fill="url(#paint1_linear_1_57)" fill-opacity="0.7"/>
</g>
<path d="M60.9911 -0.0148926C61.6523 47.9937 25.1762 85 -19.0038 85C-63.1837 85 -98.9987 46.9375 -98.9987 -0.0148926C-98.9987 -46.9673 -100.321 -42.8364 -19.0038 -85.0298C62.3134 -127.223 60.33 -48.0235 60.9911 -0.0148926Z" fill="url(#paint2_linear_1_57)"/>
<path d="M23.0417 132.959V134.543H19.875V132.959H23.0417ZM15.125 132.959V137.709H11.9583V132.959H15.125ZM23.0417 139.293V144.043H19.875V139.293H23.0417ZM15.125 142.459V144.043H11.9583V142.459H15.125ZM24.625 131.376H18.2917V136.126H24.625V131.376ZM16.7083 131.376H10.375V139.293H16.7083V131.376ZM24.625 137.709H18.2917V145.626H24.625V137.709ZM16.7083 140.876H10.375V145.626H16.7083V140.876Z" fill="white"/>
<g filter="url(#filter0_d_1_57)">
<path d="M958.151 210H209.849C198.887 210 190 218.954 190 230V407C190 418.046 198.887 427 209.849 427H958.151C969.113 427 978 418.046 978 407V230C978 218.954 969.113 210 958.151 210Z" fill="white"/>
</g>
<g filter="url(#filter1_d_1_57)">
<path d="M474.387 455H209.613C198.781 455 190 463.954 190 475V666C190 677.046 198.781 686 209.613 686H474.387C485.219 686 494 677.046 494 666V475C494 463.954 485.219 455 474.387 455Z" fill="white"/>
</g>
<g filter="url(#filter2_d_1_57)">
<path d="M1232 210H1026C1014.95 210 1006 218.954 1006 230V407C1006 418.046 1014.95 427 1026 427H1232C1243.05 427 1252 418.046 1252 407V230C1252 218.954 1243.05 210 1232 210Z" fill="white"/>
</g>
<g filter="url(#filter3_d_1_57)">
<path d="M1232 455H542C530.954 455 522 463.954 522 475V666C522 677.046 530.954 686 542 686H1232C1243.05 686 1252 677.046 1252 666V475C1252 463.954 1243.05 455 1232 455Z" fill="white"/>
</g>
<path fill-rule="evenodd" clip-rule="evenodd" d="M57 665.587C57 665.166 57.1672 664.763 57.4649 664.465C57.7626 664.167 58.1664 664 58.5874 664H74.4109C74.6195 664 74.8262 664.04 75.019 664.12C75.2119 664.2 75.3871 664.317 75.5347 664.464C75.6823 664.612 75.7994 664.787 75.8792 664.979C75.9591 665.172 76.0001 665.379 76 665.587V681.411C76.0002 681.62 75.9593 681.826 75.8796 682.019C75.7999 682.212 75.6829 682.387 75.5354 682.535C75.3879 682.682 75.2127 682.799 75.0199 682.879C74.8271 682.959 74.6204 683 74.4118 683H58.5874C58.3788 683 58.1724 682.959 57.9797 682.879C57.7871 682.799 57.612 682.682 57.4646 682.535C57.3172 682.387 57.2003 682.212 57.1206 682.019C57.0409 681.827 56.9999 681.62 57 681.412V665.587ZM64.5205 671.244H67.0933V672.536C67.4647 671.793 68.4147 671.125 69.8423 671.125C72.5791 671.125 73.2277 672.604 73.2277 675.319V680.347H70.458V675.937C70.458 674.391 70.0867 673.519 69.1436 673.519C67.8352 673.519 67.2911 674.46 67.2911 675.937V680.347H64.5205V671.244ZM59.7705 680.229H62.5411V671.125H59.7705V680.229ZM62.9375 668.156C62.9427 668.393 62.9005 668.629 62.8133 668.85C62.7262 669.07 62.5958 669.271 62.4299 669.441C62.264 669.611 62.0658 669.745 61.8471 669.837C61.6284 669.929 61.3935 669.977 61.1562 669.977C60.919 669.977 60.6841 669.929 60.4654 669.837C60.2467 669.745 60.0485 669.611 59.8826 669.441C59.7167 669.271 59.5863 669.07 59.4992 668.85C59.412 668.629 59.3698 668.393 59.375 668.156C59.3853 667.69 59.5774 667.247 59.9104 666.921C60.2433 666.596 60.6905 666.413 61.1562 666.413C61.622 666.413 62.0692 666.596 62.4021 666.921C62.7351 667.247 62.9272 667.69 62.9375 668.156Z" fill="white"/>
<g filter="url(#filter4_d_1_57)">
<path d="M410 88H204C192.954 88 184 96.9543 184 108V165C184 176.046 192.954 185 204 185H410C421.046 185 430 176.046 430 165V108C430 96.9543 421.046 88 410 88Z" fill="white"/>
</g>
<path d="M184 108C184 96.9543 192.954 88 204 88H248V185H204C192.954 185 184 176.046 184 165V108Z" fill="url(#paint3_linear_1_57)"/>
<g filter="url(#filter5_d_1_57)">
<path d="M684 88H478C466.954 88 458 96.9543 458 108V165C458 176.046 466.954 185 478 185H684C695.046 185 704 176.046 704 165V108C704 96.9543 695.046 88 684 88Z" fill="white"/>
</g>
<path d="M458 108C458 96.9543 466.954 88 478 88H522V185H478C466.954 185 458 176.046 458 165V108Z" fill="url(#paint4_linear_1_57)"/>
<g filter="url(#filter6_d_1_57)">
<path d="M958 88H752C740.954 88 732 96.9543 732 108V165C732 176.046 740.954 185 752 185H958C969.046 185 978 176.046 978 165V108C978 96.9543 969.046 88 958 88Z" fill="white"/>
</g>
<path d="M732 108C732 96.9543 740.954 88 752 88H796V185H752C740.954 185 732 176.046 732 165V108Z" fill="url(#paint5_linear_1_57)"/>
<path d="M216 156C226.493 156 235 147.493 235 137C235 126.507 226.493 118 216 118C205.507 118 197 126.507 197 137C197 147.493 205.507 156 216 156Z" fill="white" fill-opacity="0.15"/>
<path d="M490 156C500.493 156 509 147.493 509 137C509 126.507 500.493 118 490 118C479.507 118 471 126.507 471 137C471 147.493 479.507 156 490 156Z" fill="white" fill-opacity="0.15"/>
<path d="M764 156C774.493 156 783 147.493 783 137C783 126.507 774.493 118 764 118C753.507 118 745 126.507 745 137C745 147.493 753.507 156 764 156Z" fill="white" fill-opacity="0.15"/>
<path d="M220.683 140L216.683 149C215.887 149 215.124 148.684 214.561 148.122C213.999 147.559 213.683 146.796 213.683 146V142H208.023C207.733 142.004 207.446 141.944 207.181 141.825C206.917 141.706 206.681 141.532 206.491 141.313C206.301 141.094 206.16 140.837 206.079 140.558C205.998 140.28 205.979 139.987 206.023 139.7L207.403 130.7C207.475 130.223 207.717 129.789 208.085 129.476C208.452 129.164 208.92 128.995 209.403 129H220.683M220.683 140V129M220.683 140H223.353C223.919 140.01 224.469 139.812 224.898 139.444C225.328 139.075 225.607 138.561 225.683 138V131C225.607 130.439 225.328 129.926 224.898 129.557C224.469 129.188 223.919 128.99 223.353 129H220.683" stroke="white" stroke-width="2" stroke-linecap="round" stroke-linejoin="round"/>
<path d="M764 131V137L768 139M774 137C774 142.523 769.523 147 764 147C758.477 147 754 142.523 754 137C754 131.477 758.477 127 764 127C769.523 127 774 131.477 774 137Z" stroke="white" stroke-width="2" stroke-linecap="round" stroke-linejoin="round"/>
<g filter="url(#filter7_d_1_57)">
<path d="M1232 88H1026C1014.95 88 1006 96.9543 1006 108V165C1006 176.046 1014.95 185 1026 185H1232C1243.05 185 1252 176.046 1252 165V108C1252 96.9543 1243.05 88 1232 88Z" fill="white"/>
</g>
<path d="M1006 108C1006 96.9543 1014.95 88 1026 88H1070V185H1026C1014.95 185 1006 176.046 1006 165V108Z" fill="url(#paint6_linear_1_57)"/>
<path d="M1038 156C1048.49 156 1057 147.493 1057 137C1057 126.507 1048.49 118 1038 118C1027.51 118 1019 126.507 1019 137C1019 147.493 1027.51 156 1038 156Z" fill="white" fill-opacity="0.15"/>
<path d="M1038 131V137L1042 139M1048 137C1048 142.523 1043.52 147 1038 147C1032.48 147 1028 142.523 1028 137C1028 131.477 1032.48 127 1038 127C1043.52 127 1048 131.477 1048 137Z" stroke="white" stroke-width="2" stroke-linecap="round" stroke-linejoin="round"/>
<path d="M492.7 131.3C492.517 131.487 492.414 131.738 492.414 132C492.414 132.261 492.517 132.513 492.7 132.7L494.3 134.3C494.487 134.483 494.739 134.586 495 134.586C495.262 134.586 495.513 134.483 495.7 134.3L499.47 130.53C499.973 131.641 500.125 132.879 499.907 134.079C499.688 135.279 499.109 136.384 498.247 137.246C497.384 138.108 496.279 138.688 495.079 138.906C493.88 139.125 492.642 138.973 491.53 138.47L484.62 145.38C484.223 145.778 483.683 146.001 483.12 146.001C482.558 146.001 482.018 145.778 481.62 145.38C481.223 144.982 480.999 144.442 480.999 143.88C480.999 143.317 481.223 142.778 481.62 142.38L488.53 135.47C488.028 134.359 487.875 133.121 488.094 131.921C488.313 130.721 488.892 129.616 489.754 128.753C490.616 127.891 491.721 127.312 492.921 127.093C494.121 126.875 495.359 127.027 496.47 127.53L492.71 131.29L492.7 131.3Z" stroke="white" stroke-width="2" stroke-linecap="round" stroke-linejoin="round"/>
</g>
<path d="M192.49 52V31H202.03C204.31 31 206.32 31.44 208.06 32.32C209.8 33.18 211.16 34.39 212.14 35.95C213.12 37.51 213.61 39.36 213.61 41.5C213.61 43.62 213.12 45.47 212.14 47.05C211.16 48.61 209.8 49.83 208.06 50.71C206.32 51.57 204.31 52 202.03 52H192.49ZM197.35 48.01H201.79C203.19 48.01 204.4 47.75 205.42 47.23C206.46 46.69 207.26 45.93 207.82 44.95C208.4 43.97 208.69 42.82 208.69 41.5C208.69 40.16 208.4 39.01 207.82 38.05C207.26 37.07 206.46 36.32 205.42 35.8C204.4 35.26 203.19 34.99 201.79 34.99H197.35V48.01ZM226.845 52V48.85L226.545 48.16V42.52C226.545 41.52 226.235 40.74 225.615 40.18C225.015 39.62 224.085 39.34 222.825 39.34C221.965 39.34 221.115 39.48 220.275 39.76C219.455 40.02 218.755 40.38 218.175 40.84L216.495 37.57C217.375 36.95 218.435 36.47 219.675 36.13C220.915 35.79 222.175 35.62 223.455 35.62C225.915 35.62 227.825 36.2 229.185 37.36C230.545 38.52 231.225 40.33 231.225 42.79V52H226.845ZM221.925 52.24C220.665 52.24 219.585 52.03 218.685 51.61C217.785 51.17 217.095 50.58 216.615 49.84C216.135 49.1 215.895 48.27 215.895 47.35C215.895 46.39 216.125 45.55 216.585 44.83C217.065 44.11 217.815 43.55 218.835 43.15C219.855 42.73 221.185 42.52 222.825 42.52H227.115V45.25H223.335C222.235 45.25 221.475 45.43 221.055 45.79C220.655 46.15 220.455 46.6 220.455 47.14C220.455 47.74 220.685 48.22 221.145 48.58C221.625 48.92 222.275 49.09 223.095 49.09C223.875 49.09 224.575 48.91 225.195 48.55C225.815 48.17 226.265 47.62 226.545 46.9L227.265 49.06C226.925 50.1 226.305 50.89 225.405 51.43C224.505 51.97 223.345 52.24 221.925 52.24ZM240.891 52.24C239.511 52.24 238.181 52.08 236.901 51.76C235.641 51.42 234.641 51 233.901 50.5L235.461 47.14C236.201 47.6 237.071 47.98 238.071 48.28C239.091 48.56 240.091 48.7 241.071 48.7C242.151 48.7 242.911 48.57 243.351 48.31C243.811 48.05 244.041 47.69 244.041 47.23C244.041 46.85 243.861 46.57 243.501 46.39C243.161 46.19 242.701 46.04 242.121 45.94C241.541 45.84 240.901 45.74 240.201 45.64C239.521 45.54 238.831 45.41 238.131 45.25C237.431 45.07 236.791 44.81 236.211 44.47C235.631 44.13 235.161 43.67 234.801 43.09C234.461 42.51 234.291 41.76 234.291 40.84C234.291 39.82 234.581 38.92 235.161 38.14C235.761 37.36 236.621 36.75 237.741 36.31C238.861 35.85 240.201 35.62 241.761 35.62C242.861 35.62 243.981 35.74 245.121 35.98C246.261 36.22 247.211 36.57 247.971 37.03L246.411 40.36C245.631 39.9 244.841 39.59 244.041 39.43C243.261 39.25 242.501 39.16 241.761 39.16C240.721 39.16 239.961 39.3 239.481 39.58C239.001 39.86 238.761 40.22 238.761 40.66C238.761 41.06 238.931 41.36 239.271 41.56C239.631 41.76 240.101 41.92 240.681 42.04C241.261 42.16 241.891 42.27 242.571 42.37C243.271 42.45 243.971 42.58 244.671 42.76C245.371 42.94 246.001 43.2 246.561 43.54C247.141 43.86 247.611 44.31 247.971 44.89C248.331 45.45 248.511 46.19 248.511 47.11C248.511 48.11 248.211 49 247.611 49.78C247.011 50.54 246.141 51.14 245.001 51.58C243.881 52.02 242.511 52.24 240.891 52.24ZM261.208 35.62C262.488 35.62 263.628 35.88 264.628 36.4C265.648 36.9 266.448 37.68 267.028 38.74C267.608 39.78 267.898 41.12 267.898 42.76V52H263.218V43.48C263.218 42.18 262.928 41.22 262.348 40.6C261.788 39.98 260.988 39.67 259.948 39.67C259.208 39.67 258.538 39.83 257.938 40.15C257.358 40.45 256.898 40.92 256.558 41.56C256.238 42.2 256.078 43.02 256.078 44.02V52H251.398V29.74H256.078V40.33L255.028 38.98C255.608 37.9 256.438 37.07 257.518 36.49C258.598 35.91 259.828 35.62 261.208 35.62ZM281.68 52.24C280.26 52.24 279.04 51.94 278.02 51.34C277 50.74 276.22 49.83 275.68 48.61C275.14 47.37 274.87 45.81 274.87 43.93C274.87 42.03 275.15 40.47 275.71 39.25C276.29 38.03 277.09 37.12 278.11 36.52C279.13 35.92 280.32 35.62 281.68 35.62C283.2 35.62 284.56 35.96 285.76 36.64C286.98 37.32 287.94 38.28 288.64 39.52C289.36 40.76 289.72 42.23 289.72 43.93C289.72 45.61 289.36 47.07 288.64 48.31C287.94 49.55 286.98 50.52 285.76 51.22C284.56 51.9 283.2 52.24 281.68 52.24ZM272.14 52V29.74H276.82V39.13L276.52 43.9L276.61 48.7V52H272.14ZM280.87 48.4C281.65 48.4 282.34 48.22 282.94 47.86C283.56 47.5 284.05 46.99 284.41 46.33C284.79 45.65 284.98 44.85 284.98 43.93C284.98 42.99 284.79 42.19 284.41 41.53C284.05 40.87 283.56 40.36 282.94 40C282.34 39.64 281.65 39.46 280.87 39.46C280.09 39.46 279.39 39.64 278.77 40C278.15 40.36 277.66 40.87 277.3 41.53C276.94 42.19 276.76 42.99 276.76 43.93C276.76 44.85 276.94 45.65 277.3 46.33C277.66 46.99 278.15 47.5 278.77 47.86C279.39 48.22 280.09 48.4 280.87 48.4ZM300.533 52.24C298.813 52.24 297.283 51.88 295.943 51.16C294.623 50.44 293.573 49.46 292.793 48.22C292.033 46.96 291.653 45.53 291.653 43.93C291.653 42.31 292.033 40.88 292.793 39.64C293.573 38.38 294.623 37.4 295.943 36.7C297.283 35.98 298.813 35.62 300.533 35.62C302.233 35.62 303.753 35.98 305.093 36.7C306.433 37.4 307.483 38.37 308.243 39.61C309.003 40.85 309.383 42.29 309.383 43.93C309.383 45.53 309.003 46.96 308.243 48.22C307.483 49.46 306.433 50.44 305.093 51.16C303.753 51.88 302.233 52.24 300.533 52.24ZM300.533 48.4C301.313 48.4 302.013 48.22 302.633 47.86C303.253 47.5 303.743 46.99 304.103 46.33C304.463 45.65 304.643 44.85 304.643 43.93C304.643 42.99 304.463 42.19 304.103 41.53C303.743 40.87 303.253 40.36 302.633 40C302.013 39.64 301.313 39.46 300.533 39.46C299.753 39.46 299.053 39.64 298.433 40C297.813 40.36 297.313 40.87 296.933 41.53C296.573 42.19 296.393 42.99 296.393 43.93C296.393 44.85 296.573 45.65 296.933 46.33C297.313 46.99 297.813 47.5 298.433 47.86C299.053 48.22 299.753 48.4 300.533 48.4ZM322.148 52V48.85L321.848 48.16V42.52C321.848 41.52 321.538 40.74 320.918 40.18C320.318 39.62 319.388 39.34 318.128 39.34C317.268 39.34 316.418 39.48 315.578 39.76C314.758 40.02 314.058 40.38 313.478 40.84L311.798 37.57C312.678 36.95 313.738 36.47 314.978 36.13C316.218 35.79 317.478 35.62 318.758 35.62C321.218 35.62 323.128 36.2 324.488 37.36C325.848 38.52 326.528 40.33 326.528 42.79V52H322.148ZM317.228 52.24C315.968 52.24 314.888 52.03 313.988 51.61C313.088 51.17 312.398 50.58 311.918 49.84C311.438 49.1 311.198 48.27 311.198 47.35C311.198 46.39 311.428 45.55 311.888 44.83C312.368 44.11 313.118 43.55 314.138 43.15C315.158 42.73 316.488 42.52 318.128 42.52H322.418V45.25H318.638C317.538 45.25 316.778 45.43 316.358 45.79C315.958 46.15 315.758 46.6 315.758 47.14C315.758 47.74 315.988 48.22 316.448 48.58C316.928 48.92 317.578 49.09 318.398 49.09C319.178 49.09 319.878 48.91 320.498 48.55C321.118 48.17 321.568 47.62 321.848 46.9L322.568 49.06C322.228 50.1 321.608 50.89 320.708 51.43C319.808 51.97 318.648 52.24 317.228 52.24ZM330.764 52V35.86H335.234V40.42L334.604 39.1C335.084 37.96 335.854 37.1 336.914 36.52C337.974 35.92 339.264 35.62 340.784 35.62V39.94C340.584 39.92 340.404 39.91 340.244 39.91C340.084 39.89 339.914 39.88 339.734 39.88C338.454 39.88 337.414 40.25 336.614 40.99C335.834 41.71 335.444 42.84 335.444 44.38V52H330.764ZM350.379 52.24C348.859 52.24 347.489 51.9 346.269 51.22C345.049 50.52 344.079 49.55 343.359 48.31C342.659 47.07 342.309 45.61 342.309 43.93C342.309 42.23 342.659 40.76 343.359 39.52C344.079 38.28 345.049 37.32 346.269 36.64C347.489 35.96 348.859 35.62 350.379 35.62C351.739 35.62 352.929 35.92 353.949 36.52C354.969 37.12 355.759 38.03 356.319 39.25C356.879 40.47 357.159 42.03 357.159 43.93C357.159 45.81 356.889 47.37 356.349 48.61C355.809 49.83 355.029 50.74 354.009 51.34C353.009 51.94 351.799 52.24 350.379 52.24ZM351.189 48.4C351.949 48.4 352.639 48.22 353.259 47.86C353.879 47.5 354.369 46.99 354.729 46.33C355.109 45.65 355.299 44.85 355.299 43.93C355.299 42.99 355.109 42.19 354.729 41.53C354.369 40.87 353.879 40.36 353.259 40C352.639 39.64 351.949 39.46 351.189 39.46C350.409 39.46 349.709 39.64 349.089 40C348.469 40.36 347.969 40.87 347.589 41.53C347.229 42.19 347.049 42.99 347.049 43.93C347.049 44.85 347.229 45.65 347.589 46.33C347.969 46.99 348.469 47.5 349.089 47.86C349.709 48.22 350.409 48.4 351.189 48.4ZM355.419 52V48.7L355.509 43.9L355.209 39.13V29.74H359.889V52H355.419ZM373.047 52V31H377.067L386.007 45.82H383.877L392.667 31H396.657L396.717 52H392.157L392.127 37.99H392.967L385.947 49.78H383.757L376.587 37.99H377.607V52H373.047ZM411.269 52V48.85L410.969 48.16V42.52C410.969 41.52 410.659 40.74 410.039 40.18C409.439 39.62 408.509 39.34 407.249 39.34C406.389 39.34 405.539 39.48 404.699 39.76C403.879 40.02 403.179 40.38 402.599 40.84L400.919 37.57C401.799 36.95 402.859 36.47 404.099 36.13C405.339 35.79 406.599 35.62 407.879 35.62C410.339 35.62 412.249 36.2 413.609 37.36C414.969 38.52 415.649 40.33 415.649 42.79V52H411.269ZM406.349 52.24C405.089 52.24 404.009 52.03 403.109 51.61C402.209 51.17 401.519 50.58 401.039 49.84C400.559 49.1 400.319 48.27 400.319 47.35C400.319 46.39 400.549 45.55 401.009 44.83C401.489 44.11 402.239 43.55 403.259 43.15C404.279 42.73 405.609 42.52 407.249 42.52H411.539V45.25H407.759C406.659 45.25 405.899 45.43 405.479 45.79C405.079 46.15 404.879 46.6 404.879 47.14C404.879 47.74 405.109 48.22 405.569 48.58C406.049 48.92 406.699 49.09 407.519 49.09C408.299 49.09 408.999 48.91 409.619 48.55C410.239 48.17 410.689 47.62 410.969 46.9L411.689 49.06C411.349 50.1 410.729 50.89 409.829 51.43C408.929 51.97 407.769 52.24 406.349 52.24ZM429.695 35.62C430.975 35.62 432.115 35.88 433.115 36.4C434.135 36.9 434.935 37.68 435.515 38.74C436.095 39.78 436.385 41.12 436.385 42.76V52H431.705V43.48C431.705 42.18 431.415 41.22 430.835 40.6C430.275 39.98 429.475 39.67 428.435 39.67C427.695 39.67 427.025 39.83 426.425 40.15C425.845 40.45 425.385 40.92 425.045 41.56C424.725 42.2 424.565 43.02 424.565 44.02V52H419.885V35.86H424.355V40.33L423.515 38.98C424.095 37.9 424.925 37.07 426.005 36.49C427.085 35.91 428.315 35.62 429.695 35.62ZM447.437 52.24C446.097 52.24 444.897 51.98 443.837 51.46C442.797 50.94 441.987 50.15 441.407 49.09C440.827 48.01 440.537 46.64 440.537 44.98V35.86H445.217V44.29C445.217 45.63 445.497 46.62 446.057 47.26C446.637 47.88 447.447 48.19 448.487 48.19C449.207 48.19 449.847 48.04 450.407 47.74C450.967 47.42 451.407 46.94 451.727 46.3C452.047 45.64 452.207 44.82 452.207 43.84V35.86H456.887V52H452.447V47.56L453.257 48.85C452.717 49.97 451.917 50.82 450.857 51.4C449.817 51.96 448.677 52.24 447.437 52.24ZM467.823 52.24C465.923 52.24 464.443 51.76 463.383 50.8C462.323 49.82 461.793 48.37 461.793 46.45V32.29H466.473V46.39C466.473 47.07 466.653 47.6 467.013 47.98C467.373 48.34 467.863 48.52 468.483 48.52C469.223 48.52 469.853 48.32 470.373 47.92L471.633 51.22C471.153 51.56 470.573 51.82 469.893 52C469.233 52.16 468.543 52.24 467.823 52.24ZM459.303 39.82V36.22H470.493V39.82H459.303ZM481.772 52.24C479.932 52.24 478.312 51.88 476.912 51.16C475.532 50.44 474.462 49.46 473.702 48.22C472.942 46.96 472.562 45.53 472.562 43.93C472.562 42.31 472.932 40.88 473.672 39.64C474.432 38.38 475.462 37.4 476.762 36.7C478.062 35.98 479.532 35.62 481.172 35.62C482.752 35.62 484.172 35.96 485.432 36.64C486.712 37.3 487.722 38.26 488.462 39.52C489.202 40.76 489.572 42.25 489.572 43.99C489.572 44.17 489.562 44.38 489.542 44.62C489.522 44.84 489.502 45.05 489.482 45.25H476.372V42.52H487.022L485.222 43.33C485.222 42.49 485.052 41.76 484.712 41.14C484.372 40.52 483.902 40.04 483.302 39.7C482.702 39.34 482.002 39.16 481.202 39.16C480.402 39.16 479.692 39.34 479.072 39.7C478.472 40.04 478.002 40.53 477.662 41.17C477.322 41.79 477.152 42.53 477.152 43.39V44.11C477.152 44.99 477.342 45.77 477.722 46.45C478.122 47.11 478.672 47.62 479.372 47.98C480.092 48.32 480.932 48.49 481.892 48.49C482.752 48.49 483.502 48.36 484.142 48.1C484.802 47.84 485.402 47.45 485.942 46.93L488.432 49.63C487.692 50.47 486.762 51.12 485.642 51.58C484.522 52.02 483.232 52.24 481.772 52.24ZM502.497 35.62C503.777 35.62 504.917 35.88 505.917 36.4C506.937 36.9 507.737 37.68 508.317 38.74C508.897 39.78 509.187 41.12 509.187 42.76V52H504.507V43.48C504.507 42.18 504.217 41.22 503.637 40.6C503.077 39.98 502.277 39.67 501.237 39.67C500.497 39.67 499.827 39.83 499.227 40.15C498.647 40.45 498.187 40.92 497.847 41.56C497.527 42.2 497.367 43.02 497.367 44.02V52H492.687V35.86H497.157V40.33L496.317 38.98C496.897 37.9 497.727 37.07 498.807 36.49C499.887 35.91 501.117 35.62 502.497 35.62ZM521.347 52.24C519.607 52.24 518.057 51.89 516.697 51.19C515.337 50.47 514.267 49.48 513.487 48.22C512.727 46.96 512.347 45.53 512.347 43.93C512.347 42.31 512.727 40.88 513.487 39.64C514.267 38.38 515.337 37.4 516.697 36.7C518.057 35.98 519.607 35.62 521.347 35.62C523.047 35.62 524.527 35.98 525.787 36.7C527.047 37.4 527.977 38.41 528.577 39.73L524.947 41.68C524.527 40.92 523.997 40.36 523.357 40C522.737 39.64 522.057 39.46 521.317 39.46C520.517 39.46 519.797 39.64 519.157 40C518.517 40.36 518.007 40.87 517.627 41.53C517.267 42.19 517.087 42.99 517.087 43.93C517.087 44.87 517.267 45.67 517.627 46.33C518.007 46.99 518.517 47.5 519.157 47.86C519.797 48.22 520.517 48.4 521.317 48.4C522.057 48.4 522.737 48.23 523.357 47.89C523.997 47.53 524.527 46.96 524.947 46.18L528.577 48.16C527.977 49.46 527.047 50.47 525.787 51.19C524.527 51.89 523.047 52.24 521.347 52.24ZM519.637 58.96C519.117 58.96 518.607 58.9 518.107 58.78C517.627 58.66 517.207 58.51 516.847 58.33L517.567 56.32C517.867 56.46 518.177 56.57 518.497 56.65C518.817 56.73 519.157 56.77 519.517 56.77C520.077 56.77 520.477 56.68 520.717 56.5C520.957 56.32 521.077 56.09 521.077 55.81C521.077 55.55 520.957 55.34 520.717 55.18C520.497 55.02 520.127 54.94 519.607 54.94H518.587L519.367 51.76H521.857L521.437 53.5C522.337 53.6 522.997 53.88 523.417 54.34C523.837 54.82 524.047 55.37 524.047 55.99C524.047 56.89 523.647 57.61 522.847 58.15C522.047 58.69 520.977 58.96 519.637 58.96ZM541.171 52V48.85L540.871 48.16V42.52C540.871 41.52 540.561 40.74 539.941 40.18C539.341 39.62 538.411 39.34 537.151 39.34C536.291 39.34 535.441 39.48 534.601 39.76C533.781 40.02 533.081 40.38 532.501 40.84L530.821 37.57C531.701 36.95 532.761 36.47 534.001 36.13C535.241 35.79 536.501 35.62 537.781 35.62C540.241 35.62 542.151 36.2 543.511 37.36C544.871 38.52 545.551 40.33 545.551 42.79V52H541.171ZM536.251 52.24C534.991 52.24 533.911 52.03 533.011 51.61C532.111 51.17 531.421 50.58 530.941 49.84C530.461 49.1 530.221 48.27 530.221 47.35C530.221 46.39 530.451 45.55 530.911 44.83C531.391 44.11 532.141 43.55 533.161 43.15C534.181 42.73 535.511 42.52 537.151 42.52H541.441V45.25H537.661C536.561 45.25 535.801 45.43 535.381 45.79C534.981 46.15 534.781 46.6 534.781 47.14C534.781 47.74 535.011 48.22 535.471 48.58C535.951 48.92 536.601 49.09 537.421 49.09C538.201 49.09 538.901 48.91 539.521 48.55C540.141 48.17 540.591 47.62 540.871 46.9L541.591 49.06C541.251 50.1 540.631 50.89 539.731 51.43C538.831 51.97 537.671 52.24 536.251 52.24ZM540.511 33.88C539.991 33.88 539.531 33.79 539.131 33.61C538.731 33.41 538.371 33.19 538.051 32.95C537.731 32.69 537.431 32.47 537.151 32.29C536.871 32.09 536.591 31.99 536.311 31.99C535.911 31.99 535.581 32.14 535.321 32.44C535.061 32.72 534.911 33.13 534.871 33.67H532.501C532.541 32.33 532.871 31.27 533.491 30.49C534.111 29.69 534.951 29.29 536.011 29.29C536.531 29.29 536.991 29.39 537.391 29.59C537.791 29.77 538.151 29.99 538.471 30.25C538.811 30.51 539.121 30.74 539.401 30.94C539.681 31.12 539.951 31.21 540.211 31.21C540.631 31.21 540.971 31.07 541.231 30.79C541.491 30.49 541.631 30.09 541.651 29.59H544.021C544.001 30.87 543.671 31.91 543.031 32.71C542.411 33.49 541.571 33.88 540.511 33.88ZM557.584 52.24C555.864 52.24 554.334 51.88 552.994 51.16C551.674 50.44 550.624 49.46 549.844 48.22C549.084 46.96 548.704 45.53 548.704 43.93C548.704 42.31 549.084 40.88 549.844 39.64C550.624 38.38 551.674 37.4 552.994 36.7C554.334 35.98 555.864 35.62 557.584 35.62C559.284 35.62 560.804 35.98 562.144 36.7C563.484 37.4 564.534 38.37 565.294 39.61C566.054 40.85 566.434 42.29 566.434 43.93C566.434 45.53 566.054 46.96 565.294 48.22C564.534 49.46 563.484 50.44 562.144 51.16C560.804 51.88 559.284 52.24 557.584 52.24ZM557.584 48.4C558.364 48.4 559.064 48.22 559.684 47.86C560.304 47.5 560.794 46.99 561.154 46.33C561.514 45.65 561.694 44.85 561.694 43.93C561.694 42.99 561.514 42.19 561.154 41.53C560.794 40.87 560.304 40.36 559.684 40C559.064 39.64 558.364 39.46 557.584 39.46C556.804 39.46 556.104 39.64 555.484 40C554.864 40.36 554.364 40.87 553.984 41.53C553.624 42.19 553.444 42.99 553.444 43.93C553.444 44.85 553.624 45.65 553.984 46.33C554.364 46.99 554.864 47.5 555.484 47.86C556.104 48.22 556.804 48.4 557.584 48.4Z" fill="white"/>
</g>
<defs>
<filter id="filter0_d_1_57" x="170" y="194" width="828" height="257" filterUnits="userSpaceOnUse" color-interpolation-filters="sRGB">
<feFlood flood-opacity="0" result="BackgroundImageFix"/>
<feColorMatrix in="SourceAlpha" type="matrix" values="0 0 0 0 0 0 0 0 0 0 0 0 0 0 0 0 0 0 127 0" result="hardAlpha"/>
<feOffset dy="4"/>
<feGaussianBlur stdDeviation="10"/>
<feComposite in2="hardAlpha" operator="out"/>
<feColorMatrix type="matrix" values="0 0 0 0 0 0 0 0 0 0 0 0 0 0 0 0 0 0 0.05 0"/>
<feBlend mode="normal" in2="BackgroundImageFix" result="effect1_dropShadow_1_57"/>
<feBlend mode="normal" in="SourceGraphic" in2="effect1_dropShadow_1_57" result="shape"/>
</filter>
<filter id="filter1_d_1_57" x="170" y="439" width="344" height="271" filterUnits="userSpaceOnUse" color-interpolation-filters="sRGB">
<feFlood flood-opacity="0" result="BackgroundImageFix"/>
<feColorMatrix in="SourceAlpha" type="matrix" values="0 0 0 0 0 0 0 0 0 0 0 0 0 0 0 0 0 0 127 0" result="hardAlpha"/>
<feOffset dy="4"/>
<feGaussianBlur stdDeviation="10"/>
<feComposite in2="hardAlpha" operator="out"/>
<feColorMatrix type="matrix" values="0 0 0 0 0 0 0 0 0 0 0 0 0 0 0 0 0 0 0.05 0"/>
<feBlend mode="normal" in2="BackgroundImageFix" result="effect1_dropShadow_1_57"/>
<feBlend mode="normal" in="SourceGraphic" in2="effect1_dropShadow_1_57" result="shape"/>
</filter>
<filter id="filter2_d_1_57" x="986" y="194" width="286" height="257" filterUnits="userSpaceOnUse" color-interpolation-filters="sRGB">
<feFlood flood-opacity="0" result="BackgroundImageFix"/>
<feColorMatrix in="SourceAlpha" type="matrix" values="0 0 0 0 0 0 0 0 0 0 0 0 0 0 0 0 0 0 127 0" result="hardAlpha"/>
<feOffset dy="4"/>
<feGaussianBlur stdDeviation="10"/>
<feComposite in2="hardAlpha" operator="out"/>
<feColorMatrix type="matrix" values="0 0 0 0 0 0 0 0 0 0 0 0 0 0 0 0 0 0 0.05 0"/>
<feBlend mode="normal" in2="BackgroundImageFix" result="effect1_dropShadow_1_57"/>
<feBlend mode="normal" in="SourceGraphic" in2="effect1_dropShadow_1_57" result="shape"/>
</filter>
<filter id="filter3_d_1_57" x="502" y="439" width="770" height="271" filterUnits="userSpaceOnUse" color-interpolation-filters="sRGB">
<feFlood flood-opacity="0" result="BackgroundImageFix"/>
<feColorMatrix in="SourceAlpha" type="matrix" values="0 0 0 0 0 0 0 0 0 0 0 0 0 0 0 0 0 0 127 0" result="hardAlpha"/>
<feOffset dy="4"/>
<feGaussianBlur stdDeviation="10"/>
<feComposite in2="hardAlpha" operator="out"/>
<feColorMatrix type="matrix" values="0 0 0 0 0 0 0 0 0 0 0 0 0 0 0 0 0 0 0.05 0"/>
<feBlend mode="normal" in2="BackgroundImageFix" result="effect1_dropShadow_1_57"/>
<feBlend mode="normal" in="SourceGraphic" in2="effect1_dropShadow_1_57" result="shape"/>
</filter>
<filter id="filter4_d_1_57" x="164" y="72" width="286" height="137" filterUnits="userSpaceOnUse" color-interpolation-filters="sRGB">
<feFlood flood-opacity="0" result="BackgroundImageFix"/>
<feColorMatrix in="SourceAlpha" type="matrix" values="0 0 0 0 0 0 0 0 0 0 0 0 0 0 0 0 0 0 127 0" result="hardAlpha"/>
<feOffset dy="4"/>
<feGaussianBlur stdDeviation="10"/>
<feComposite in2="hardAlpha" operator="out"/>
<feColorMatrix type="matrix" values="0 0 0 0 0 0 0 0 0 0 0 0 0 0 0 0 0 0 0.05 0"/>
<feBlend mode="normal" in2="BackgroundImageFix" result="effect1_dropShadow_1_57"/>
<feBlend mode="normal" in="SourceGraphic" in2="effect1_dropShadow_1_57" result="shape"/>
</filter>
<filter id="filter5_d_1_57" x="438" y="72" width="286" height="137" filterUnits="userSpaceOnUse" color-interpolation-filters="sRGB">
<feFlood flood-opacity="0" result="BackgroundImageFix"/>
<feColorMatrix in="SourceAlpha" type="matrix" values="0 0 0 0 0 0 0 0 0 0 0 0 0 0 0 0 0 0 127 0" result="hardAlpha"/>
<feOffset dy="4"/>
<feGaussianBlur stdDeviation="10"/>
<feComposite in2="hardAlpha" operator="out"/>
<feColorMatrix type="matrix" values="0 0 0 0 0 0 0 0 0 0 0 0 0 0 0 0 0 0 0.05 0"/>
<feBlend mode="normal" in2="BackgroundImageFix" result="effect1_dropShadow_1_57"/>
<feBlend mode="normal" in="SourceGraphic" in2="effect1_dropShadow_1_57" result="shape"/>
</filter>
<filter id="filter6_d_1_57" x="712" y="72" width="286" height="137" filterUnits="userSpaceOnUse" color-interpolation-filters="sRGB">
<feFlood flood-opacity="0" result="BackgroundImageFix"/>
<feColorMatrix in="SourceAlpha" type="matrix" values="0 0 0 0 0 0 0 0 0 0 0 0 0 0 0 0 0 0 127 0" result="hardAlpha"/>
<feOffset dy="4"/>
<feGaussianBlur stdDeviation="10"/>
<feComposite in2="hardAlpha" operator="out"/>
<feColorMatrix type="matrix" values="0 0 0 0 0 0 0 0 0 0 0 0 0 0 0 0 0 0 0.05 0"/>
<feBlend mode="normal" in2="BackgroundImageFix" result="effect1_dropShadow_1_57"/>
<feBlend mode="normal" in="SourceGraphic" in2="effect1_dropShadow_1_57" result="shape"/>
</filter>
<filter id="filter7_d_1_57" x="986" y="72" width="286" height="137" filterUnits="userSpaceOnUse" color-interpolation-filters="sRGB">
<feFlood flood-opacity="0" result="BackgroundImageFix"/>
<feColorMatrix in="SourceAlpha" type="matrix" values="0 0 0 0 0 0 0 0 0 0 0 0 0 0 0 0 0 0 127 0" result="hardAlpha"/>
<feOffset dy="4"/>
<feGaussianBlur stdDeviation="10"/>
<feComposite in2="hardAlpha" operator="out"/>
<feColorMatrix type="matrix" values="0 0 0 0 0 0 0 0 0 0 0 0 0 0 0 0 0 0 0.05 0"/>
<feBlend mode="normal" in2="BackgroundImageFix" result="effect1_dropShadow_1_57"/>
<feBlend mode="normal" in="SourceGraphic" in2="effect1_dropShadow_1_57" result="shape"/>
</filter>
<linearGradient id="paint0_linear_1_57" x1="64" y1="118" x2="64" y2="160" gradientUnits="userSpaceOnUse">
<stop stop-color="#FFB870"/>
<stop offset="1" stop-color="#FC7866"/>
</linearGradient>
<linearGradient id="paint1_linear_1_57" x1="85.7448" y1="171.47" x2="85.7448" y2="403.071" gradientUnits="userSpaceOnUse">
<stop stop-color="#9041F0"/>
<stop offset="1" stop-color="#8A4EF6"/>
</linearGradient>
<linearGradient id="paint2_linear_1_57" x1="-19.0038" y1="-85.03" x2="-19.0038" y2="84.9999" gradientUnits="userSpaceOnUse">
<stop stop-color="#8C37F0"/>
<stop offset="1" stop-color="#8C37F0" stop-opacity="0.7"/>
</linearGradient>
<linearGradient id="paint3_linear_1_57" x1="216" y1="88" x2="216" y2="185" gradientUnits="userSpaceOnUse">
<stop stop-color="#8337F1"/>
<stop offset="1" stop-color="#7657FD"/>
</linearGradient>
<linearGradient id="paint4_linear_1_57" x1="490" y1="88" x2="490" y2="185" gradientUnits="userSpaceOnUse">
<stop stop-color="#FFBD71"/>
<stop offset="1" stop-color="#FB7865"/>
</linearGradient>
<linearGradient id="paint5_linear_1_57" x1="764" y1="88" x2="764" y2="185" gradientUnits="userSpaceOnUse">
<stop stop-color="#8CF3FF"/>
<stop offset="1" stop-color="#10BBCF"/>
</linearGradient>
<linearGradient id="paint6_linear_1_57" x1="1038" y1="88" x2="1038" y2="185" gradientUnits="userSpaceOnUse">
<stop stop-color="#FF92B7"/>
<stop offset="1" stop-color="#C40D4C"/>
</linearGradient>
<clipPath id="clip0_1_57">
<rect width="1280" height="720" fill="white"/>
</clipPath>
</defs>
</svg>
